<svg width="29" height="29" viewBox="0 0 29 29" fill="none" xmlns="http://www.w3.org/2000/svg">
<path d="M27.0601 18.3021V20.8036C27.0601 23.5907 25.027 26.2178 22.2627 26.9831C22.0686 27.0288 21.863 27.0288 21.6802 26.9831C20.3324 26.6176 19.1444 25.7952 18.3106 24.7329C17.4082 23.6135 16.8828 22.2314 16.8828 20.8036V18.3021C16.8828 17.8224 17.2369 17.297 17.671 17.1142L20.8464 15.8121C21.566 15.5265 22.3655 15.5265 23.0851 15.8121L24.2274 16.2804L26.272 17.1142C26.706 17.297 27.0601 17.8224 27.0601 18.3021Z" fill="#FCFAFF"/>
<path opacity="0.4" d="M24.7181 13.322L24.2269 16.2803L23.0847 15.812C22.3651 15.5265 21.5655 15.5265 20.8459 15.812L17.6705 17.1142C17.2365 17.2969 16.8824 17.8223 16.8824 18.3021V20.8036C16.8824 22.2314 17.4078 23.6135 18.3102 24.7329H7.84727C6.2824 24.7329 4.80894 23.4878 4.54622 21.9458L3.10699 13.322C2.92423 12.2597 3.46107 10.8319 4.30633 10.1579L11.8223 4.14976C12.9759 3.22455 14.8492 3.22456 16.0029 4.16119L23.5188 10.1579C24.3526 10.8319 24.9009 12.2597 24.7181 13.322Z" fill="#FCFAFF"/>
</svg>
