<svg width="28" height="29" viewBox="0 0 28 29" fill="none" xmlns="http://www.w3.org/2000/svg">
<path d="M13.9409 3.77612V16.3636L3.26101 23.8338C2.29011 22.6801 2.233 20.9325 3.31812 18.9793L6.8819 12.5713L10.2401 6.52891C11.2567 4.70133 12.5931 3.77612 13.9409 3.77612Z" fill="#FCFAFF"/>
<path opacity="0.6" d="M24.6211 23.8338C23.8786 24.7361 22.5879 25.273 20.8631 25.273H7.01919C5.29441 25.273 4.00368 24.7361 3.26123 23.8338L13.9411 16.3635L24.6211 23.8338Z" fill="#FCFAFF"/>
<path opacity="0.4" d="M24.6213 23.8338L13.9414 16.3636V3.77612C15.2892 3.77612 16.6257 4.70133 17.6423 6.52891L21.0004 12.5713L24.5642 18.9793C25.6493 20.9325 25.5922 22.6801 24.6213 23.8338Z" fill="#FCFAFF"/>
</svg>
