<svg width="28" height="28" viewBox="0 0 28 28" fill="none" xmlns="http://www.w3.org/2000/svg">
<path opacity="0.4" d="M18.7996 2.44067H9.2277C5.06996 2.44067 2.59131 4.91933 2.59131 9.07707V18.6376C2.59131 22.8068 5.06996 25.2854 9.2277 25.2854H18.7882C22.946 25.2854 25.4246 22.8068 25.4246 18.649V9.07707C25.436 4.91933 22.9574 2.44067 18.7996 2.44067Z" fill="#FCFAFF"/>
<path d="M14.0139 18.2949C16.4616 18.2949 18.4458 16.3107 18.4458 13.863C18.4458 11.4154 16.4616 9.43115 14.0139 9.43115C11.5663 9.43115 9.58203 11.4154 9.58203 13.863C9.58203 16.3107 11.5663 18.2949 14.0139 18.2949Z" fill="#FCFAFF"/>
<path d="M19.7243 8.72322C19.4159 8.72322 19.1303 8.609 18.9133 8.39197C18.8105 8.27775 18.7305 8.15211 18.6734 8.01504C18.6163 7.87797 18.582 7.72948 18.582 7.58099C18.582 7.4325 18.6163 7.28401 18.6734 7.14694C18.7305 6.99845 18.8105 6.88422 18.9133 6.77C19.176 6.50728 19.5758 6.38164 19.9413 6.46159C20.0212 6.47302 20.0898 6.49586 20.1583 6.53013C20.2269 6.55297 20.2954 6.58724 20.3639 6.63293C20.421 6.6672 20.4781 6.72431 20.5353 6.77C20.6381 6.88422 20.718 6.99845 20.7751 7.14694C20.8322 7.28401 20.8665 7.4325 20.8665 7.58099C20.8665 7.72948 20.8322 7.87797 20.7751 8.01504C20.718 8.15211 20.6381 8.27775 20.5353 8.39197C20.421 8.49478 20.2954 8.57473 20.1583 8.63184C20.0212 8.68896 19.8728 8.72322 19.7243 8.72322Z" fill="#FCFAFF"/>
</svg>
