<svg width="21" height="22" viewBox="0 0 21 22" fill="none" xmlns="http://www.w3.org/2000/svg">
<path opacity="0.4" d="M9.20307 2.84807C9.79418 2.34263 10.7622 2.34263 11.3619 2.84807L12.7154 4.01316C12.9725 4.23589 13.4522 4.41579 13.7949 4.41579H15.2512C16.1593 4.41579 16.9046 5.1611 16.9046 6.06918V7.52553C16.9046 7.85964 17.0845 8.34794 17.3072 8.60495L18.4723 9.9585C18.9778 10.5496 18.9778 11.5177 18.4723 12.1173L17.3072 13.4709C17.0845 13.7279 16.9046 14.2076 16.9046 14.5503V16.0066C16.9046 16.9147 16.1593 17.66 15.2512 17.66H13.7949C13.4608 17.66 12.9725 17.8399 12.7154 18.0627L11.3619 19.2277C10.7708 19.7332 9.80274 19.7332 9.20307 19.2277L7.84952 18.0627C7.59252 17.8399 7.11278 17.66 6.77011 17.66H5.28805C4.37998 17.66 3.63467 16.9147 3.63467 16.0066V14.5417C3.63467 14.2076 3.45476 13.7279 3.24059 13.4709L2.08408 12.1088C1.58721 11.5177 1.58721 10.5582 2.08408 9.96706L3.24059 8.60495C3.45476 8.34794 3.63467 7.8682 3.63467 7.5341V6.06061C3.63467 5.15254 4.37998 4.40723 5.28805 4.40723H6.77011C7.10421 4.40723 7.59252 4.22732 7.84952 4.00459L9.20307 2.84807Z" fill="#FCFAFF"/>
<path d="M9.23745 13.7451C9.06612 13.7451 8.90335 13.6766 8.78341 13.5566L6.71025 11.4835C6.46182 11.235 6.46182 10.8238 6.71025 10.5754C6.95869 10.3269 7.36989 10.3269 7.61833 10.5754L9.23745 12.1945L12.9212 8.51079C13.1696 8.26235 13.5808 8.26235 13.8292 8.51079C14.0777 8.75923 14.0777 9.17043 13.8292 9.41887L9.69149 13.5566C9.57156 13.6766 9.40879 13.7451 9.23745 13.7451Z" fill="#FCFAFF"/>
</svg>
