<svg width="29" height="29" viewBox="0 0 29 29" fill="none" xmlns="http://www.w3.org/2000/svg">
<path opacity="0.4" d="M19.346 3.24194H9.78551C5.61635 3.24194 3.1377 5.7206 3.1377 9.87834V19.4389C3.1377 23.5966 5.61635 26.0753 9.77409 26.0753H19.3346C23.4924 26.0753 25.971 23.5966 25.971 19.4389V9.87834C25.9824 5.7206 23.5038 3.24194 19.346 3.24194Z" fill="#FCFAFF"/>
<path d="M21.4139 13.191C21.2311 13.191 21.0483 13.1339 20.8884 13.0083C17.0391 10.0385 12.0704 10.0385 8.23245 13.0083C7.85551 13.2938 7.31866 13.2253 7.0331 12.8598C6.74754 12.4828 6.81608 11.946 7.18159 11.6604C11.6592 8.19945 17.4503 8.19945 21.9393 11.6604C22.3162 11.946 22.3848 12.4828 22.0878 12.8598C21.9279 13.0768 21.6652 13.191 21.4139 13.191Z" fill="#FCFAFF"/>
<path d="M19.5865 16.7206C19.4038 16.7206 19.221 16.6635 19.0611 16.5379C16.3197 14.4247 12.7902 14.4247 10.0489 16.5379C9.67192 16.8234 9.13507 16.7549 8.84951 16.3894C8.56395 16.0239 8.63248 15.4756 8.998 15.19C12.3676 12.5857 16.7309 12.5857 20.1005 15.19C20.4775 15.4756 20.546 16.0125 20.249 16.3894C20.1005 16.6064 19.8493 16.7206 19.5865 16.7206Z" fill="white"/>
<path d="M17.0734 20.2501C16.8906 20.2501 16.7079 20.193 16.548 20.0673C15.3372 19.1307 13.7723 19.1307 12.5616 20.0673C12.1846 20.3529 11.6478 20.2843 11.3622 19.9188C11.0766 19.5419 11.1452 19.005 11.5107 18.7195C13.3269 17.3145 15.7712 17.3145 17.5874 18.7195C17.9643 19.005 18.0329 19.5419 17.7359 19.9188C17.5874 20.1359 17.3361 20.2501 17.0734 20.2501Z" fill="white"/>
</svg>
